<svg xmlns="http://www.w3.org/2000/svg" version="1.1" xmlns:xlink="http://www.w3.org/1999/xlink" xmlns:svgjs="http://svgjs.dev/svgjs" width="776.84998" height="1024"><svg width="776.84998" height="1024" viewBox="0 0 776.84998 1024" version="1.1" id="SvgjsSvg1178" inkscape:version="1.4 (e7c3feb100, 2024-10-09)" sodipodi:docname="icon-template.svg" xmlns:inkscape="http://www.inkscape.org/namespaces/inkscape" xmlns:sodipodi="http://sodipodi.sourceforge.net/DTD/sodipodi-0.dtd" xmlns:xlink="http://www.w3.org/1999/xlink" xmlns="http://www.w3.org/2000/svg" xmlns:svg="http://www.w3.org/2000/svg" xmlns:rdf="http://www.w3.org/1999/02/22-rdf-syntax-ns#" xmlns:cc="http://creativecommons.org/ns#" xmlns:dc="http://purl.org/dc/elements/1.1/">
  <title id="SvgjsTitle1177">Project Jam</title>
  <sodipodi:namedview id="SvgjsSodipodi:namedview1176" pagecolor="#000000" bordercolor="#ffffff" borderopacity="1" inkscape:showpageshadow="0" inkscape:pageopacity="0" inkscape:pagecheckerboard="1" inkscape:deskcolor="#505050" inkscape:document-units="px" showgrid="true" inkscape:zoom="0.35355339" inkscape:cx="377.59502" inkscape:cy="380.42345" inkscape:window-width="1189" inkscape:window-height="755" inkscape:window-x="0" inkscape:window-y="0" inkscape:window-maximized="1" inkscape:current-layer="layer1" showguides="false">
    <inkscape:grid id="SvgjsInkscape:grid1175" units="px" originx="0" originy="0" spacingx="1" spacingy="1" empcolor="#0099e5" empopacity="0.30196078" color="#0099e5" opacity="0.14901961" empspacing="5" enabled="true" visible="true"></inkscape:grid>
  </sodipodi:namedview>
  <defs id="SvgjsDefs1174">
    <rect x="373" y="338" width="276" height="91" id="SvgjsRect1173"></rect>
    <inkscape:path-effect effect="powerstroke" message="" id="SvgjsInkscape:path-effect1172" is_visible="true" lpeversion="1.3" scale_width="1" interpolator_type="CentripetalCatmullRom" interpolator_beta="0.75" start_linecap_type="round" end_linecap_type="round" offset_points="10.385694,10" linejoin_type="spiro" miter_limit="4" not_jump="true" sort_points="true"></inkscape:path-effect>
    <inkscape:path-effect effect="simplify" id="SvgjsInkscape:path-effect1171" is_visible="true" lpeversion="1.3" threshold="0.012" steps="1" smooth_angles="0" helper_size="0" simplify_individual_paths="false" simplify_just_coalesce="false" step="1"></inkscape:path-effect>
    <inkscape:path-effect effect="powerstroke" message="" id="SvgjsInkscape:path-effect1170" is_visible="true" lpeversion="1.3" scale_width="1" interpolator_type="CentripetalCatmullRom" interpolator_beta="0.75" start_linecap_type="round" end_linecap_type="round" offset_points="7.3363989,10" linejoin_type="spiro" miter_limit="4" not_jump="true" sort_points="true"></inkscape:path-effect>
    <inkscape:path-effect effect="simplify" id="SvgjsInkscape:path-effect1169" is_visible="true" lpeversion="1.3" threshold="0.012" steps="1" smooth_angles="0" helper_size="0" simplify_individual_paths="false" simplify_just_coalesce="false" step="1"></inkscape:path-effect>
    <inkscape:path-effect effect="powerstroke" message="" id="SvgjsInkscape:path-effect1168" is_visible="true" lpeversion="1.3" scale_width="1" interpolator_type="CentripetalCatmullRom" interpolator_beta="0.75" start_linecap_type="round" end_linecap_type="round" offset_points="8.3190428,5" linejoin_type="spiro" miter_limit="4" not_jump="true" sort_points="true"></inkscape:path-effect>
    <inkscape:path-effect effect="simplify" id="SvgjsInkscape:path-effect1167" is_visible="true" lpeversion="1.3" threshold="0.012" steps="1" smooth_angles="0" helper_size="0" simplify_individual_paths="false" simplify_just_coalesce="false" step="1"></inkscape:path-effect>
    <inkscape:path-effect effect="powerstroke" message="" id="SvgjsInkscape:path-effect1166" is_visible="true" lpeversion="1.3" scale_width="1" interpolator_type="CentripetalCatmullRom" interpolator_beta="0.75" start_linecap_type="round" end_linecap_type="round" offset_points="2.1636658,5" linejoin_type="spiro" miter_limit="4" not_jump="true" sort_points="true"></inkscape:path-effect>
    <inkscape:path-effect effect="simplify" id="SvgjsInkscape:path-effect1165" is_visible="true" lpeversion="1.3" threshold="0.012" steps="1" smooth_angles="0" helper_size="0" simplify_individual_paths="false" simplify_just_coalesce="false" step="1"></inkscape:path-effect>
    <inkscape:path-effect effect="powerstroke" message="" id="SvgjsInkscape:path-effect1164" is_visible="true" lpeversion="1.3" scale_width="1" interpolator_type="CentripetalCatmullRom" interpolator_beta="0.75" start_linecap_type="round" end_linecap_type="round" offset_points="14.323277,5" linejoin_type="spiro" miter_limit="4" not_jump="true" sort_points="true"></inkscape:path-effect>
    <inkscape:path-effect effect="simplify" id="SvgjsInkscape:path-effect1163" is_visible="true" lpeversion="1.3" threshold="0.012" steps="1" smooth_angles="0" helper_size="0" simplify_individual_paths="false" simplify_just_coalesce="false" step="1"></inkscape:path-effect>
    <inkscape:path-effect effect="powerstroke" message="" id="SvgjsInkscape:path-effect1162" is_visible="true" lpeversion="1.3" scale_width="1" interpolator_type="CentripetalCatmullRom" interpolator_beta="0.75" start_linecap_type="round" end_linecap_type="round" offset_points="5.5297544,5" linejoin_type="spiro" miter_limit="4" not_jump="true" sort_points="true"></inkscape:path-effect>
    <inkscape:path-effect effect="simplify" id="SvgjsInkscape:path-effect1161" is_visible="true" lpeversion="1.3" threshold="0.012" steps="1" smooth_angles="0" helper_size="0" simplify_individual_paths="false" simplify_just_coalesce="false" step="1"></inkscape:path-effect>
    <inkscape:path-effect effect="powerstroke" message="" id="SvgjsInkscape:path-effect1160" is_visible="true" lpeversion="1.3" scale_width="1" interpolator_type="CentripetalCatmullRom" interpolator_beta="0.75" start_linecap_type="round" end_linecap_type="round" offset_points="88.372401,15" linejoin_type="spiro" miter_limit="4" not_jump="true" sort_points="true"></inkscape:path-effect>
    <inkscape:path-effect effect="simplify" id="SvgjsInkscape:path-effect1159" is_visible="true" lpeversion="1.3" threshold="0.012" steps="1" smooth_angles="0" helper_size="0" simplify_individual_paths="false" simplify_just_coalesce="false" step="1"></inkscape:path-effect>
    <inkscape:path-effect effect="powerstroke" message="" id="SvgjsInkscape:path-effect1158" is_visible="true" lpeversion="1.3" scale_width="1" interpolator_type="CentripetalCatmullRom" interpolator_beta="0.75" start_linecap_type="round" end_linecap_type="round" offset_points="9.5126627,15" linejoin_type="spiro" miter_limit="4" not_jump="true" sort_points="true"></inkscape:path-effect>
    <inkscape:path-effect effect="simplify" id="SvgjsInkscape:path-effect1157" is_visible="true" lpeversion="1.3" threshold="0.012" steps="1" smooth_angles="0" helper_size="0" simplify_individual_paths="false" simplify_just_coalesce="false" step="1"></inkscape:path-effect>
    <inkscape:path-effect effect="powerstroke" message="" id="SvgjsInkscape:path-effect1156" is_visible="true" lpeversion="1.3" scale_width="1" interpolator_type="CentripetalCatmullRom" interpolator_beta="0.75" start_linecap_type="round" end_linecap_type="round" offset_points="0,15" linejoin_type="spiro" miter_limit="4" not_jump="true" sort_points="true"></inkscape:path-effect>
    <inkscape:path-effect effect="simplify" id="SvgjsInkscape:path-effect1155" is_visible="true" lpeversion="1.3" threshold="0.012" steps="1" smooth_angles="0" helper_size="0" simplify_individual_paths="false" simplify_just_coalesce="false" step="1"></inkscape:path-effect>
    <inkscape:path-effect effect="powerstroke" message="" id="SvgjsInkscape:path-effect1154" is_visible="true" lpeversion="1.3" scale_width="1" interpolator_type="CentripetalCatmullRom" interpolator_beta="0.75" start_linecap_type="round" end_linecap_type="round" offset_points="0.23120451,15" linejoin_type="spiro" miter_limit="4" not_jump="true" sort_points="true"></inkscape:path-effect>
    <inkscape:path-effect effect="simplify" id="SvgjsInkscape:path-effect1153" is_visible="true" lpeversion="1.3" threshold="0.012" steps="1" smooth_angles="0" helper_size="0" simplify_individual_paths="false" simplify_just_coalesce="false" step="1"></inkscape:path-effect>
    <inkscape:path-effect effect="powerstroke" message="" id="SvgjsInkscape:path-effect1152" is_visible="true" lpeversion="1.3" scale_width="1" interpolator_type="CentripetalCatmullRom" interpolator_beta="0.75" start_linecap_type="round" end_linecap_type="round" offset_points="43.100446,15" linejoin_type="spiro" miter_limit="4" not_jump="true" sort_points="true"></inkscape:path-effect>
    <inkscape:path-effect effect="simplify" id="SvgjsInkscape:path-effect1151" is_visible="true" lpeversion="1.3" threshold="0.012" steps="1" smooth_angles="0" helper_size="0" simplify_individual_paths="false" simplify_just_coalesce="false" step="1"></inkscape:path-effect>
    <inkscape:path-effect effect="powerstroke" message="" id="SvgjsInkscape:path-effect1150" is_visible="true" lpeversion="1.3" scale_width="1" interpolator_type="CentripetalCatmullRom" interpolator_beta="0.75" start_linecap_type="round" end_linecap_type="round" offset_points="1.3707344,15" linejoin_type="spiro" miter_limit="4" not_jump="true" sort_points="true"></inkscape:path-effect>
    <inkscape:path-effect effect="simplify" id="SvgjsInkscape:path-effect1149" is_visible="true" lpeversion="1.3" threshold="0.012" steps="1" smooth_angles="0" helper_size="0" simplify_individual_paths="false" simplify_just_coalesce="false" step="1"></inkscape:path-effect>
    <inkscape:path-effect effect="powerstroke" message="" id="SvgjsInkscape:path-effect1148" is_visible="true" lpeversion="1.3" scale_width="1" interpolator_type="CentripetalCatmullRom" interpolator_beta="0.75" start_linecap_type="round" end_linecap_type="round" offset_points="3.4283885,15" linejoin_type="spiro" miter_limit="4" not_jump="true" sort_points="true"></inkscape:path-effect>
    <inkscape:path-effect effect="simplify" id="SvgjsInkscape:path-effect1147" is_visible="true" lpeversion="1.3" threshold="0.012" steps="1" smooth_angles="0" helper_size="0" simplify_individual_paths="false" simplify_just_coalesce="false" step="1"></inkscape:path-effect>
    <inkscape:path-effect effect="powerstroke" message="" id="SvgjsInkscape:path-effect1146" is_visible="true" lpeversion="1.3" scale_width="1" interpolator_type="CentripetalCatmullRom" interpolator_beta="0.75" start_linecap_type="round" end_linecap_type="round" offset_points="8.4898004,15" linejoin_type="spiro" miter_limit="4" not_jump="true" sort_points="true"></inkscape:path-effect>
    <inkscape:path-effect effect="simplify" id="SvgjsInkscape:path-effect1145" is_visible="true" lpeversion="1.3" threshold="0.012" steps="1" smooth_angles="0" helper_size="0" simplify_individual_paths="false" simplify_just_coalesce="false" step="1"></inkscape:path-effect>
    <inkscape:path-effect effect="powerstroke" message="" id="SvgjsInkscape:path-effect1144" is_visible="true" lpeversion="1.3" scale_width="1" interpolator_type="CentripetalCatmullRom" interpolator_beta="0.75" start_linecap_type="round" end_linecap_type="round" offset_points="5.3834732,0.1171875" linejoin_type="spiro" miter_limit="4" not_jump="true" sort_points="true"></inkscape:path-effect>
    <inkscape:path-effect effect="simplify" id="SvgjsInkscape:path-effect1143" is_visible="true" lpeversion="1.3" threshold="0.012" steps="1" smooth_angles="0" helper_size="0" simplify_individual_paths="false" simplify_just_coalesce="false" step="1"></inkscape:path-effect>
    <inkscape:path-effect effect="powerstroke" message="" id="SvgjsInkscape:path-effect1142" is_visible="true" lpeversion="1.3" scale_width="1" interpolator_type="CentripetalCatmullRom" interpolator_beta="0.75" start_linecap_type="round" end_linecap_type="round" offset_points="9.178791,0.1171875" linejoin_type="spiro" miter_limit="4" not_jump="true" sort_points="true"></inkscape:path-effect>
    <inkscape:path-effect effect="simplify" id="SvgjsInkscape:path-effect1141" is_visible="true" lpeversion="1.3" threshold="0.012" steps="1" smooth_angles="0" helper_size="0" simplify_individual_paths="false" simplify_just_coalesce="false" step="1"></inkscape:path-effect>
    <inkscape:path-effect effect="powerstroke" message="" id="SvgjsInkscape:path-effect1140" is_visible="true" lpeversion="1.3" scale_width="1" interpolator_type="CentripetalCatmullRom" interpolator_beta="0.75" start_linecap_type="round" end_linecap_type="round" offset_points="13.850731,0.66291261" linejoin_type="spiro" miter_limit="4" not_jump="true" sort_points="true"></inkscape:path-effect>
    <inkscape:path-effect effect="simplify" id="SvgjsInkscape:path-effect1139" is_visible="true" lpeversion="1.3" threshold="0.012" steps="1" smooth_angles="0" helper_size="0" simplify_individual_paths="false" simplify_just_coalesce="false" step="1"></inkscape:path-effect>
    <inkscape:path-effect effect="powerstroke" message="" id="SvgjsInkscape:path-effect1138" is_visible="true" lpeversion="1.3" scale_width="1" interpolator_type="CentripetalCatmullRom" interpolator_beta="0.75" start_linecap_type="round" end_linecap_type="round" offset_points="5.5647336,4.2230175" linejoin_type="spiro" miter_limit="4" not_jump="true" sort_points="true"></inkscape:path-effect>
    <inkscape:path-effect effect="simplify" id="SvgjsInkscape:path-effect1137" is_visible="true" lpeversion="1.3" threshold="0.012" steps="1" smooth_angles="0" helper_size="0" simplify_individual_paths="false" simplify_just_coalesce="false" step="1"></inkscape:path-effect>
    <inkscape:path-effect effect="powerstroke" message="" id="SvgjsInkscape:path-effect1136" is_visible="true" lpeversion="1.3" scale_width="1" interpolator_type="CentripetalCatmullRom" interpolator_beta="0.75" start_linecap_type="round" end_linecap_type="round" offset_points="2.8083816,11.278195" linejoin_type="spiro" miter_limit="4" not_jump="true" sort_points="true"></inkscape:path-effect>
    <inkscape:path-effect effect="simplify" id="SvgjsInkscape:path-effect1135" is_visible="true" lpeversion="1.3" threshold="0.012" steps="1" smooth_angles="0" helper_size="0" simplify_individual_paths="false" simplify_just_coalesce="false" step="1"></inkscape:path-effect>
    <inkscape:path-effect effect="powerstroke" message="" id="SvgjsInkscape:path-effect1134" is_visible="true" lpeversion="1.3" scale_width="1" interpolator_type="CentripetalCatmullRom" interpolator_beta="0.75" start_linecap_type="round" end_linecap_type="round" offset_points="4.7705896,11.278195" linejoin_type="spiro" miter_limit="4" not_jump="true" sort_points="true"></inkscape:path-effect>
    <inkscape:path-effect effect="simplify" id="SvgjsInkscape:path-effect1133" is_visible="true" lpeversion="1.3" threshold="0.012" steps="1" smooth_angles="0" helper_size="0" simplify_individual_paths="false" simplify_just_coalesce="false" step="1"></inkscape:path-effect>
    <inkscape:path-effect effect="powerstroke" message="" id="SvgjsInkscape:path-effect1132" is_visible="true" lpeversion="1.3" scale_width="1" interpolator_type="CentripetalCatmullRom" interpolator_beta="0.75" start_linecap_type="round" end_linecap_type="round" offset_points="8.4281466,11.278195" linejoin_type="spiro" miter_limit="4" not_jump="true" sort_points="true"></inkscape:path-effect>
    <inkscape:path-effect effect="simplify" id="SvgjsInkscape:path-effect1131" is_visible="true" lpeversion="1.3" threshold="0.012" steps="1" smooth_angles="0" helper_size="0" simplify_individual_paths="false" simplify_just_coalesce="false" step="1"></inkscape:path-effect>
    <inkscape:path-effect effect="powerstroke" message="" id="SvgjsInkscape:path-effect1130" is_visible="true" lpeversion="1.3" scale_width="1" interpolator_type="CentripetalCatmullRom" interpolator_beta="0.75" start_linecap_type="round" end_linecap_type="round" offset_points="24.367981,11.278195" linejoin_type="spiro" miter_limit="4" not_jump="true" sort_points="true"></inkscape:path-effect>
    <inkscape:path-effect effect="simplify" id="SvgjsInkscape:path-effect1129" is_visible="true" lpeversion="1.3" threshold="0.012" steps="1" smooth_angles="0" helper_size="0" simplify_individual_paths="false" simplify_just_coalesce="false" step="1"></inkscape:path-effect>
    <inkscape:path-effect effect="powerstroke" message="" id="SvgjsInkscape:path-effect1128" is_visible="true" lpeversion="1.3" scale_width="1" interpolator_type="CentripetalCatmullRom" interpolator_beta="0.75" start_linecap_type="round" end_linecap_type="round" offset_points="11.023132,11.278195" linejoin_type="spiro" miter_limit="4" not_jump="true" sort_points="true"></inkscape:path-effect>
    <inkscape:path-effect effect="simplify" id="SvgjsInkscape:path-effect1127" is_visible="true" lpeversion="1.3" threshold="0.012" steps="1" smooth_angles="0" helper_size="0" simplify_individual_paths="false" simplify_just_coalesce="false" step="1"></inkscape:path-effect>
    <inkscape:path-effect effect="powerstroke" message="" id="SvgjsInkscape:path-effect1126" is_visible="true" lpeversion="1.3" scale_width="1" interpolator_type="CentripetalCatmullRom" interpolator_beta="0.75" start_linecap_type="round" end_linecap_type="round" offset_points="9.4570038,11.278195" linejoin_type="spiro" miter_limit="4" not_jump="true" sort_points="true"></inkscape:path-effect>
    <inkscape:path-effect effect="simplify" id="SvgjsInkscape:path-effect1125" is_visible="true" lpeversion="1.3" threshold="0.012" steps="1" smooth_angles="0" helper_size="0" simplify_individual_paths="false" simplify_just_coalesce="false" step="1"></inkscape:path-effect>
    <inkscape:path-effect effect="powerstroke" message="" id="SvgjsInkscape:path-effect1124" is_visible="true" lpeversion="1.3" scale_width="1" interpolator_type="CentripetalCatmullRom" interpolator_beta="0.75" start_linecap_type="round" end_linecap_type="round" offset_points="7.9518599,11.278195" linejoin_type="spiro" miter_limit="4" not_jump="true" sort_points="true"></inkscape:path-effect>
    <inkscape:path-effect effect="simplify" id="SvgjsInkscape:path-effect1123" is_visible="true" lpeversion="1.3" threshold="0.012" steps="1" smooth_angles="0" helper_size="0" simplify_individual_paths="false" simplify_just_coalesce="false" step="1"></inkscape:path-effect>
    <inkscape:path-effect effect="powerstroke" message="" id="SvgjsInkscape:path-effect1122" is_visible="true" lpeversion="1.3" scale_width="1" interpolator_type="CentripetalCatmullRom" interpolator_beta="0.75" start_linecap_type="round" end_linecap_type="round" offset_points="1.9782241,11.278195" linejoin_type="spiro" miter_limit="4" not_jump="true" sort_points="true"></inkscape:path-effect>
    <inkscape:path-effect effect="simplify" id="SvgjsInkscape:path-effect1121" is_visible="true" lpeversion="1.3" threshold="0.012" steps="1" smooth_angles="0" helper_size="0" simplify_individual_paths="false" simplify_just_coalesce="false" step="1"></inkscape:path-effect>
    <inkscape:path-effect effect="powerstroke" message="" id="SvgjsInkscape:path-effect1120" is_visible="true" lpeversion="1.3" scale_width="1" interpolator_type="CentripetalCatmullRom" interpolator_beta="0.75" start_linecap_type="round" end_linecap_type="round" offset_points="6.6346271,11.278195" linejoin_type="spiro" miter_limit="4" not_jump="true" sort_points="true"></inkscape:path-effect>
    <inkscape:path-effect effect="simplify" id="SvgjsInkscape:path-effect1119" is_visible="true" lpeversion="1.3" threshold="0.012" steps="1" smooth_angles="0" helper_size="0" simplify_individual_paths="false" simplify_just_coalesce="false" step="1"></inkscape:path-effect>
    <inkscape:path-effect effect="offset" id="SvgjsInkscape:path-effect1118" is_visible="true" lpeversion="1.3" linejoin_type="miter" unit="mm" offset="0.6" miter_limit="4" attempt_force_join="false" update_on_knot_move="true"></inkscape:path-effect>
  </defs>
  <g inkscape:label="icon" inkscape:groupmode="layer" id="SvgjsG1117" style="display:inline" sodipodi:insensitive="true">
    <path d="M 36.676175,79.870573 C 23.050647,100.42472 15.084704,125.07168 15.084704,151.66005 v 727.36403 c 0,72.05731 58.170031,130.06482 130.431376,130.06482 H 631.5024 c 72.26138,0 130.43142,-58.00751 130.43142,-130.06482 V 151.66005 c 0,-26.58837 -7.96591,-51.23533 -21.59149,-71.789477 -2.72015,0.792321 -5.54196,1.348304 -8.52475,1.348304 H 45.200928 c -2.982827,0 -5.804597,-0.555983 -8.524753,-1.348304 z" style="baseline-shift:baseline;display:inline;overflow:visible;fill:#e9a75b;stroke:#000000;stroke-width:29.8291;stroke-dasharray:none;stroke-dashoffset:0;stroke-opacity:1;enable-background:accumulate;stop-color:#000000;stop-opacity:1" id="SvgjsPath1116"></path>
    <path d="m 43.417288,13.525706 c -16.907458,0 -30.517663,17.07132 -30.517663,38.27842 0,21.207051 13.610205,38.278457 30.517663,38.278457 H 731.65855 c 16.90748,0 30.51767,-17.071406 30.51767,-38.278457 0,-21.2071 -13.61019,-38.27842 -30.51767,-38.27842 z" style="baseline-shift:baseline;display:inline;overflow:visible;fill:#f8f8f8;stroke:#000000;stroke-width:27.0444;stroke-dasharray:none;stroke-opacity:1;enable-background:accumulate;stop-color:#000000;stop-opacity:1" id="SvgjsPath1115"></path>
    <path d="m 286.77402,341.19556 c 9e-5,3.46862 0.23763,7.82969 1.05463,12.99678 0.65637,4.14861 1.67887,8.78056 3.24088,13.8831 1.33181,4.34805 3.04319,8.99976 5.23896,13.93227 2.00079,4.49227 4.39326,9.19552 7.25226,14.04933 2.3608,4.00614 5.06511,8.15867 8.15779,12.35805 1.35994,1.84569 2.80829,3.7188 4.349,5.59909 1.10038,1.34292 2.28669,2.73688 3.55919,4.16162 2.08497,2.33308 4.49648,4.85641 7.21471,7.38043 1.86977,1.73493 3.97325,3.55359 6.28942,5.31683 1.76793,1.34445 3.74084,2.72026 5.89608,3.9889 1.72341,1.01242 3.6612,2.01709 5.77816,2.83609 0.92852,0.35841 1.93387,0.69684 3.00312,0.97521 1.9061,0.49634 3.82079,1.08993 5.68982,1.82458 1.61027,0.63348 3.18866,1.37355 4.67851,2.25499 1.26269,0.74685 2.46589,1.60048 3.56043,2.5719 0.88225,0.78209 1.70711,1.65325 2.45055,2.60819 0.72966,0.93584 1.39335,1.96696 1.98769,3.08553 0.64784,1.21773 1.21393,2.53481 1.73152,3.95876 0.62342,1.71494 1.14989,3.49917 1.69567,5.44483 0.48258,1.7217 1.01299,3.69272 1.57241,5.55895 0.31219,1.03362 0.68877,2.12452 1.17258,3.22138 0.35468,0.80233 0.78744,1.65719 1.33398,2.50351 0.44366,0.68555 0.99709,1.42079 1.69652,2.1119 0.59362,0.58621 1.3299,1.17543 2.22225,1.64664 0.75902,0.40209 1.61355,0.70476 2.52928,0.85512 0.77203,0.12816 1.54434,0.1394 2.28201,0.0592 7.66241,-0.82758 15.39671,-1.50203 23.1679,-1.92534 6.3145,-0.34206 12.66942,-0.52037 19.03169,-0.43504 5.13342,0.0707 10.27751,0.31247 15.39565,0.82141 4.12211,0.41135 8.22611,0.99647 12.27024,1.83665 3.59374,0.74724 7.13624,1.69783 10.57076,2.91957 2.55805,0.90926 5.06342,1.97454 7.4864,3.2066 2.09348,1.06282 4.14007,2.25899 6.14299,3.56929 1.81207,1.18353 3.5916,2.46137 5.39957,3.80947 2.16347,1.6112 4.55471,3.46573 6.92371,5.14084 1.83142,1.29546 3.76445,2.56344 5.81076,3.71288 2.16547,1.21894 4.44108,2.29226 6.80732,3.17946 2.6698,1.00368 5.41647,1.75871 8.18441,2.30414 3.30681,0.65224 6.63683,1.01087 9.93443,1.17697 0.35323,0.0173 0.87737,0.0467 1.41081,0.0442 1.63594,-0.003 3.3076,-0.24153 4.93007,-0.76061 1.51962,-0.48255 2.92619,-1.18961 4.18774,-2.02176 1.28347,-0.84514 2.41586,-1.8128 3.41727,-2.78934 1.12067,-1.09377 2.12225,-2.2399 3.0348,-3.34617 1.15806,-1.40594 2.2712,-2.86996 3.30189,-4.19643 1.25142,-1.61232 2.45465,-3.12196 3.72596,-4.52534 1.11356,-1.23006 2.25994,-2.35579 3.4676,-3.34776 1.08849,-0.89501 2.23113,-1.6833 3.42079,-2.34263 1.20924,-0.67135 2.48536,-1.21947 3.8038,-1.63547 1.4766,-0.46698 3.02464,-0.77637 4.6136,-0.94238 1.85608,-0.19432 3.7645,-0.19658 5.70319,-0.0487 2.32332,0.17788 4.66317,0.56662 7.01249,1.10448 0.86905,0.19859 1.74129,0.42073 2.62329,0.6602 0.0165,0.004 0.0331,0.009 0.0496,0.0132 1.14924,0.29708 2.31689,0.42264 3.45866,0.40121 1.33214,-0.0238 2.60239,-0.24524 3.76582,-0.56902 1.30632,-0.36369 2.51486,-0.86344 3.61338,-1.40732 1.3027,-0.646 2.50802,-1.38143 3.62113,-2.13421 1.38927,-0.94089 2.68877,-1.94559 3.91052,-2.95125 1.66195,-1.36948 3.24088,-2.79255 4.74708,-4.18069 1.5797,-1.45593 3.10039,-2.89696 4.60882,-4.27322 1.04031,-0.94804 2.04796,-1.84252 3.07054,-2.68116 0.6119,-0.50328 1.24037,-0.98547 1.88652,-1.45331 1.24466,-0.90408 2.48074,-1.72112 3.73653,-2.43509 1.05656,-0.5999 2.09726,-1.10935 3.13539,-1.50945 0.93434,-0.35972 1.83744,-0.61767 2.70884,-0.76163 0.74063,-0.12265 1.45654,-0.16033 2.13358,-0.11398 0.62169,0.0419 1.23767,0.1562 1.83497,0.33741 0.6682,0.20209 1.34017,0.4936 2.01205,0.86484 0.80733,0.4459 1.60493,0.99753 2.41111,1.63665 0.37332,0.29457 0.74287,0.60974 1.16644,0.97448 0.007,0.006 0.0143,0.0123 0.0215,0.0184 1.40717,1.19539 2.9,2.31137 4.48635,3.30602 1.3582,0.85079 2.79521,1.61934 4.31392,2.25409 1.35163,0.56428 2.78263,1.02844 4.28076,1.3272 1.34736,0.26853 2.75785,0.40338 4.1953,0.34283 1.30022,-0.0541 2.6077,-0.27008 3.87438,-0.66761 1.22776,-0.38392 2.38487,-0.93006 3.43754,-1.60133 0.43793,-0.27745 0.99872,-0.68861 1.13877,-0.78653 0.006,-0.004 0.0124,-0.009 0.0185,-0.013 1.85583,-1.31244 3.74843,-2.58588 5.62299,-3.82977 2.62847,-1.74248 5.36719,-3.52043 7.94926,-5.20943 3.83573,-2.50735 7.54987,-4.96153 11.21951,-7.4809 5.28096,-3.62435 10.34397,-7.29453 15.19896,-11.1348 4.47985,-3.54366 8.70977,-7.17321 12.68172,-10.95397 3.84504,-3.66059 7.39684,-7.41464 10.63942,-11.30114 3.21331,-3.8517 6.07926,-7.78341 8.58341,-11.80384 2.50075,-4.01417 4.60414,-8.06186 6.31876,-12.11225 1.67471,-3.95372 2.95386,-7.85372 3.88985,-11.63765 0.34035,-1.37509 0.62159,-2.67798 0.85505,-3.89577 a 4.2230175,4.2230175 90 0 0 -8.29498,-1.59022 c -0.20704,1.07995 -0.45658,2.23605 -0.75885,3.45735 -0.83026,3.35649 -1.96906,6.83287 -3.46855,10.37292 -1.53572,3.62778 -3.43268,7.28413 -5.7102,10.93997 -2.28189,3.66358 -4.91504,7.281 -7.89987,10.85882 -3.01304,3.61137 -6.33953,7.13094 -9.9775,10.59439 -3.75851,3.5776 -7.78938,7.03892 -12.09807,10.4472 -4.66952,3.69356 -9.57199,7.24947 -14.73899,10.79561 -3.59172,2.46588 -7.24366,4.87938 -11.06205,7.37539 -2.54885,1.66728 -5.33649,3.47717 -7.9952,5.2397 -1.89786,1.25935 -3.86809,2.58428 -5.82235,3.96613 -0.39926,0.27931 -0.66811,0.4774 -0.80947,0.56692 -0.005,0.003 -0.0103,0.007 -0.0154,0.01 -0.44184,0.28247 -0.92354,0.50913 -1.42712,0.6666 -0.52196,0.1638 -1.09379,0.26343 -1.70276,0.28876 -0.68286,0.0288 -1.41588,-0.0328 -2.19071,-0.18722 -0.86638,-0.17277 -1.75932,-0.45463 -2.67662,-0.83758 -1.03001,-0.4305 -2.0574,-0.9742 -3.08422,-1.6174 -1.19391,-0.74859 -2.357,-1.61321 -3.49287,-2.57737 -0.41926,-0.361 -0.90827,-0.77987 -1.42728,-1.18938 -1.05981,-0.84021 -2.24894,-1.67741 -3.56638,-2.40506 -1.11276,-0.61484 -2.33304,-1.15765 -3.6476,-1.5552 -1.19036,-0.36116 -2.43785,-0.59483 -3.71085,-0.68068 -1.38449,-0.0948 -2.75908,-0.0117 -4.08449,0.20775 -1.53791,0.25407 -3.00044,0.68697 -4.36655,1.21293 -1.51165,0.58259 -2.93437,1.28811 -4.27176,2.04746 -1.59056,0.90431 -3.09297,1.90278 -4.52268,2.94129 -0.76615,0.55472 -1.53345,1.14267 -2.28857,1.76375 -1.1834,0.97051 -2.31489,1.97741 -3.40082,2.96703 -1.58888,1.44966 -3.12016,2.90103 -4.64193,4.30358 -1.46761,1.35256 -2.91244,2.6521 -4.39252,3.87172 -1.08718,0.89489 -2.16989,1.7277 -3.27495,2.4761 -0.88697,0.59984 -1.76037,1.1262 -2.63722,1.56103 -0.73909,0.36592 -1.44624,0.64865 -2.12838,0.83857 -0.599,0.1667 -1.15312,0.25211 -1.65561,0.26109 -0.4147,0.008 -0.80843,-0.0372 -1.17001,-0.12868 -0.95521,-0.25903 -1.93091,-0.50782 -2.92368,-0.73468 -2.66813,-0.61085 -5.42918,-1.07642 -8.25203,-1.29254 -2.35987,-0.18005 -4.78471,-0.18561 -7.22536,0.0699 -2.09921,0.21932 -4.21124,0.63485 -6.27919,1.28885 -1.85295,0.58465 -3.65141,1.35667 -5.35664,2.30339 -1.67601,0.92887 -3.24069,2.01451 -4.68643,3.20326 -1.59722,1.31195 -3.04284,2.74254 -4.36549,4.20356 -1.4962,1.65164 -2.8612,3.37158 -4.13625,5.01434 -1.1044,1.42134 -2.09343,2.72383 -3.14846,4.00469 -0.81044,0.98248 -1.59748,1.87437 -2.41545,2.6727 -0.725,0.707 -1.44063,1.30439 -2.1671,1.78276 -0.69676,0.45961 -1.40469,0.80447 -2.10489,1.02682 -0.74678,0.23891 -1.55172,0.36064 -2.38419,0.36173 -0.005,10e-6 -0.0109,3e-5 -0.0163,6e-5 -0.25487,0.001 -0.51882,-0.0125 -0.95594,-0.0339 -2.97215,-0.14971 -5.88831,-0.46931 -8.72027,-1.02789 -2.35996,-0.46504 -4.65431,-1.09951 -6.84938,-1.92472 -1.9405,-0.72758 -3.82332,-1.61377 -5.63633,-2.63431 -1.72308,-0.96789 -3.40231,-2.06452 -5.07358,-3.2467 -2.26297,-1.60013 -4.3981,-3.26312 -6.75381,-5.01748 -1.87749,-1.39994 -3.8117,-2.79166 -5.82511,-4.10669 -2.23465,-1.4619 -4.548,-2.81594 -6.93841,-4.0295 -2.76337,-1.40515 -5.60432,-2.61161 -8.48249,-3.63465 -3.85498,-1.37131 -7.77639,-2.41895 -11.68177,-3.23098 -4.39112,-0.91227 -8.79558,-1.53708 -13.15174,-1.97177 -5.40881,-0.53785 -10.79908,-0.789 -16.11807,-0.86224 -6.59435,-0.0884 -13.14419,0.0967 -19.60459,0.4467 -7.9531,0.43322 -15.84012,1.12183 -23.6198,1.96207 -0.0299,0.003 -0.0275,-7.2e-4 0.004,0.004 0.0376,0.006 0.0458,0.0131 0.0437,0.012 -0.026,-0.0137 -0.10713,-0.0625 -0.23554,-0.18932 -0.15779,-0.15591 -0.33804,-0.37784 -0.5391,-0.68852 -0.24413,-0.37804 -0.47523,-0.81998 -0.70064,-1.32988 -0.30412,-0.68948 -0.56776,-1.43783 -0.81104,-2.24327 -0.52806,-1.76163 -1.01083,-3.56106 -1.52784,-5.40563 -0.55768,-1.98807 -1.15364,-4.02381 -1.8902,-6.04998 -0.61962,-1.70464 -1.33915,-3.39783 -2.21185,-5.03824 -0.80587,-1.51666 -1.73197,-2.96394 -2.78262,-4.31146 -1.07142,-1.37622 -2.25446,-2.62414 -3.50862,-3.73591 -1.55038,-1.37599 -3.20356,-2.54011 -4.86475,-3.52267 -1.95065,-1.15406 -3.94786,-2.08258 -5.88784,-2.84577 -2.25101,-0.8848 -4.49772,-1.57685 -6.65258,-2.13796 -0.70622,-0.18386 -1.40365,-0.41624 -2.08679,-0.67993 -1.5738,-0.60887 -3.09221,-1.38709 -4.54136,-2.23839 -1.79882,-1.05884 -3.49223,-2.23538 -5.06308,-3.42995 -2.05173,-1.56193 -3.94415,-3.19552 -5.65773,-4.78552 -2.48822,-2.31044 -4.71577,-4.63926 -6.66214,-6.81724 -1.18587,-1.32774 -2.29434,-2.63013 -3.32472,-3.88762 -1.44268,-1.76066 -2.80232,-3.51881 -4.0818,-5.25529 -2.90987,-3.95115 -5.45668,-7.86154 -7.68098,-11.63605 -2.6931,-4.57215 -4.94001,-8.9911 -6.81354,-13.19764 -2.05558,-4.61759 -3.64702,-8.94819 -4.87877,-12.9696 -1.44407,-4.71724 -2.37864,-8.9638 -2.97445,-12.72963 -0.74086,-4.68554 -0.95084,-8.60263 -0.95092,-11.67753 a 4.2230175,4.2230175 90 0 0 -8.44604,2.2e-4 z" id="SvgjsPath1114" fill="#e9a75bff" style="display:inline;fill:#000000;fill-opacity:1;fill-rule:nonzero;stroke:none;stroke-width:10;stroke-dasharray:none" sodipodi:nodetypes="cssssssssc" inkscape:original-d="m 290.99704,341.19545 c 0,41.84267 36.75605,87.89577 57.87514,93.39102 21.58877,5.61746 22.57625,17.53814 26.31579,30.07518 0.89912,3.01436 2.81897,7.9457 6.76692,7.5188 114.99792,-12.43486 91.04611,27.267 138.34586,29.32331 18.26814,0.79419 15.83584,-34.68775 54.88722,-24.06015 9.30911,2.53342 20.16031,-11.74155 28.57143,-18.04511 11.82001,-8.85829 18.41032,-7.03505 24.81203,-1.50376 6.98236,6.03299 14.73519,8.48964 20.30075,4.51128 21.87863,-15.63923 73.07425,-41.72833 81.76793,-87.07517" inkscape:path-effect="#path-effect21;#path-effect22" transform="matrix(1.6866895,0,0,1.6866895,-475.07864,-339.88015)"></path>
    <rect style="display:inline;fill:#ffffff;fill-opacity:1;stroke:#000000;stroke-width:28.3097;stroke-linejoin:round;stroke-dasharray:none;stroke-dashoffset:0;paint-order:markers fill stroke" id="SvgjsRect1113" width="602.56952" height="753.37671" x="87.221565" y="158.82335" rx="87.601639" ry="88.148026"></rect>
    <path style="fill:#ffffff;fill-opacity:1;stroke:#000000;stroke-width:28.817;stroke-linejoin:round;stroke-dasharray:none;stroke-dashoffset:0;stroke-opacity:1;paint-order:markers fill stroke" d="M 168.45046,7.5778977 C 162.30589,42.445581 101.52888,64.567474 113.61404,99.927318" id="SvgjsPath1112" sodipodi:nodetypes="cc"></path>
    <use x="0" y="0" xlink:href="#path3" id="SvgjsUse1111" transform="translate(506.00685)"></use>
    <use x="0" y="0" xlink:href="#use4" id="SvgjsUse1110" transform="translate(-126.50171)"></use>
    <use x="0" y="0" xlink:href="#use5" id="SvgjsUse1109" transform="translate(-126.50171)"></use>
    <use x="0" y="0" xlink:href="#use6" id="SvgjsUse1108" transform="translate(-126.50171)"></use>
  </g>
  <g inkscape:groupmode="layer" id="SvgjsG1107" inkscape:label="Text" sodipodi:insensitive="true">
    <text xml:space="preserve" id="SvgjsText1106" style="font-style:normal;font-variant:normal;font-weight:normal;font-stretch:normal;font-size:17.3333px;font-family:'Dela Gothic One';-inkscape-font-specification:'Dela Gothic One';text-align:start;writing-mode:lr-tb;direction:ltr;white-space:pre;shape-inside:url(#rect3);fill:#000000;stroke-width:10" transform="matrix(6.7743064,0,0,4.739158,-2400.1589,-1402.8006)" svgjs:data="{&quot;leading&quot;:&quot;1.3&quot;}"><tspan x="373" y="355.41997" id="SvgjsTspan1105">Project</tspan></text>
  </g>
  <metadata id="SvgjsMetadata1104">
    <rdf:rdf>
      <cc:work rdf:about="">
        <dc:title>Project Jam</dc:title>
        <dc:date>19/10/2024 00:11:24</dc:date>
        <dc:creator>
          <cc:agent>
            <dc:title>omarplayz. and omarreacts.</dc:title>
          </cc:agent>
        </dc:creator>
        <dc:source>projectjam.eu.org</dc:source>
        <dc:rights>
          <cc:agent>
            <dc:title>omarplayz. and omarreacts.</dc:title>
          </cc:agent>
        </dc:rights>
        <dc:publisher>
          <cc:agent>
            <dc:title>omarplayz. and omarreacts.</dc:title>
          </cc:agent>
        </dc:publisher>
        <dc:identifier>hi@dev.omarplayz.eu.org</dc:identifier>
        <dc:language>eu_us-utf8</dc:language>
        <dc:description>just the project jam october 2024 icon</dc:description>
        <dc:contributor>
          <cc:agent>
            <dc:title>omarplayz. and omarreacts.</dc:title>
          </cc:agent>
        </dc:contributor>
      </cc:work>
    </rdf:rdf>
  </metadata>
</svg><style>@media (prefers-color-scheme: light) { :root { filter: none; } }
@media (prefers-color-scheme: dark) { :root { filter: none; } }
</style></svg>