<?xml version="1.0" encoding="UTF-8" standalone="no"?>
<!-- Created with Inkscape (http://www.inkscape.org/) -->

<svg
   width="776.84998"
   height="1024"
   viewBox="0 0 776.84998 1024"
   version="1.1"
   id="svg1"
   xmlns:xlink="http://www.w3.org/1999/xlink"
   xmlns="http://www.w3.org/2000/svg"
   xmlns:svg="http://www.w3.org/2000/svg"
   xmlns:rdf="http://www.w3.org/1999/02/22-rdf-syntax-ns#"
   xmlns:cc="http://creativecommons.org/ns#"
   xmlns:dc="http://purl.org/dc/elements/1.1/">
  <title
     id="title1">Project Jam</title>
  <defs
     id="defs1">
    <rect
       x="373"
       y="338"
       width="276"
       height="91"
       id="rect3" />
  </defs>
  <g
     id="layer1"
     style="display:inline">
    <path
       d="M 36.676175,79.870573 C 23.050647,100.42472 15.084704,125.07168 15.084704,151.66005 v 727.36403 c 0,72.05731 58.170031,130.06482 130.431376,130.06482 H 631.5024 c 72.26138,0 130.43142,-58.00751 130.43142,-130.06482 V 151.66005 c 0,-26.58837 -7.96591,-51.23533 -21.59149,-71.789477 -2.72015,0.792321 -5.54196,1.348304 -8.52475,1.348304 H 45.200928 c -2.982827,0 -5.804597,-0.555983 -8.524753,-1.348304 z"
       style="baseline-shift:baseline;display:inline;overflow:visible;fill:#e9a75b;stroke:#000000;stroke-width:29.8291;stroke-dasharray:none;stroke-dashoffset:0;stroke-opacity:1;enable-background:accumulate;stop-color:#000000;stop-opacity:1"
       id="path12" />
    <path
       d="m 43.417288,13.525706 c -16.907458,0 -30.517663,17.07132 -30.517663,38.27842 0,21.207051 13.610205,38.278457 30.517663,38.278457 H 731.65855 c 16.90748,0 30.51767,-17.071406 30.51767,-38.278457 0,-21.2071 -13.61019,-38.27842 -30.51767,-38.27842 z"
       style="baseline-shift:baseline;display:inline;overflow:visible;fill:#f8f8f8;stroke:#000000;stroke-width:27.0444;stroke-dasharray:none;stroke-opacity:1;enable-background:accumulate;stop-color:#000000;stop-opacity:1"
       id="path11" />
    <path
       d="m 286.77402,341.19556 c 9e-5,3.46862 0.23763,7.82969 1.05463,12.99678 0.65637,4.14861 1.67887,8.78056 3.24088,13.8831 1.33181,4.34805 3.04319,8.99976 5.23896,13.93227 2.00079,4.49227 4.39326,9.19552 7.25226,14.04933 2.3608,4.00614 5.06511,8.15867 8.15779,12.35805 1.35994,1.84569 2.80829,3.7188 4.349,5.59909 1.10038,1.34292 2.28669,2.73688 3.55919,4.16162 2.08497,2.33308 4.49648,4.85641 7.21471,7.38043 1.86977,1.73493 3.97325,3.55359 6.28942,5.31683 1.76793,1.34445 3.74084,2.72026 5.89608,3.9889 1.72341,1.01242 3.6612,2.01709 5.77816,2.83609 0.92852,0.35841 1.93387,0.69684 3.00312,0.97521 1.9061,0.49634 3.82079,1.08993 5.68982,1.82458 1.61027,0.63348 3.18866,1.37355 4.67851,2.25499 1.26269,0.74685 2.46589,1.60048 3.56043,2.5719 0.88225,0.78209 1.70711,1.65325 2.45055,2.60819 0.72966,0.93584 1.39335,1.96696 1.98769,3.08553 0.64784,1.21773 1.21393,2.53481 1.73152,3.95876 0.62342,1.71494 1.14989,3.49917 1.69567,5.44483 0.48258,1.7217 1.01299,3.69272 1.57241,5.55895 0.31219,1.03362 0.68877,2.12452 1.17258,3.22138 0.35468,0.80233 0.78744,1.65719 1.33398,2.50351 0.44366,0.68555 0.99709,1.42079 1.69652,2.1119 0.59362,0.58621 1.3299,1.17543 2.22225,1.64664 0.75902,0.40209 1.61355,0.70476 2.52928,0.85512 0.77203,0.12816 1.54434,0.1394 2.28201,0.0592 7.66241,-0.82758 15.39671,-1.50203 23.1679,-1.92534 6.3145,-0.34206 12.66942,-0.52037 19.03169,-0.43504 5.13342,0.0707 10.27751,0.31247 15.39565,0.82141 4.12211,0.41135 8.22611,0.99647 12.27024,1.83665 3.59374,0.74724 7.13624,1.69783 10.57076,2.91957 2.55805,0.90926 5.06342,1.97454 7.4864,3.2066 2.09348,1.06282 4.14007,2.25899 6.14299,3.56929 1.81207,1.18353 3.5916,2.46137 5.39957,3.80947 2.16347,1.6112 4.55471,3.46573 6.92371,5.14084 1.83142,1.29546 3.76445,2.56344 5.81076,3.71288 2.16547,1.21894 4.44108,2.29226 6.80732,3.17946 2.6698,1.00368 5.41647,1.75871 8.18441,2.30414 3.30681,0.65224 6.63683,1.01087 9.93443,1.17697 0.35323,0.0173 0.87737,0.0467 1.41081,0.0442 1.63594,-0.003 3.3076,-0.24153 4.93007,-0.76061 1.51962,-0.48255 2.92619,-1.18961 4.18774,-2.02176 1.28347,-0.84514 2.41586,-1.8128 3.41727,-2.78934 1.12067,-1.09377 2.12225,-2.2399 3.0348,-3.34617 1.15806,-1.40594 2.2712,-2.86996 3.30189,-4.19643 1.25142,-1.61232 2.45465,-3.12196 3.72596,-4.52534 1.11356,-1.23006 2.25994,-2.35579 3.4676,-3.34776 1.08849,-0.89501 2.23113,-1.6833 3.42079,-2.34263 1.20924,-0.67135 2.48536,-1.21947 3.8038,-1.63547 1.4766,-0.46698 3.02464,-0.77637 4.6136,-0.94238 1.85608,-0.19432 3.7645,-0.19658 5.70319,-0.0487 2.32332,0.17788 4.66317,0.56662 7.01249,1.10448 0.86905,0.19859 1.74129,0.42073 2.62329,0.6602 0.0165,0.004 0.0331,0.009 0.0496,0.0132 1.14924,0.29708 2.31689,0.42264 3.45866,0.40121 1.33214,-0.0238 2.60239,-0.24524 3.76582,-0.56902 1.30632,-0.36369 2.51486,-0.86344 3.61338,-1.40732 1.3027,-0.646 2.50802,-1.38143 3.62113,-2.13421 1.38927,-0.94089 2.68877,-1.94559 3.91052,-2.95125 1.66195,-1.36948 3.24088,-2.79255 4.74708,-4.18069 1.5797,-1.45593 3.10039,-2.89696 4.60882,-4.27322 1.04031,-0.94804 2.04796,-1.84252 3.07054,-2.68116 0.6119,-0.50328 1.24037,-0.98547 1.88652,-1.45331 1.24466,-0.90408 2.48074,-1.72112 3.73653,-2.43509 1.05656,-0.5999 2.09726,-1.10935 3.13539,-1.50945 0.93434,-0.35972 1.83744,-0.61767 2.70884,-0.76163 0.74063,-0.12265 1.45654,-0.16033 2.13358,-0.11398 0.62169,0.0419 1.23767,0.1562 1.83497,0.33741 0.6682,0.20209 1.34017,0.4936 2.01205,0.86484 0.80733,0.4459 1.60493,0.99753 2.41111,1.63665 0.37332,0.29457 0.74287,0.60974 1.16644,0.97448 0.007,0.006 0.0143,0.0123 0.0215,0.0184 1.40717,1.19539 2.9,2.31137 4.48635,3.30602 1.3582,0.85079 2.79521,1.61934 4.31392,2.25409 1.35163,0.56428 2.78263,1.02844 4.28076,1.3272 1.34736,0.26853 2.75785,0.40338 4.1953,0.34283 1.30022,-0.0541 2.6077,-0.27008 3.87438,-0.66761 1.22776,-0.38392 2.38487,-0.93006 3.43754,-1.60133 0.43793,-0.27745 0.99872,-0.68861 1.13877,-0.78653 0.006,-0.004 0.0124,-0.009 0.0185,-0.013 1.85583,-1.31244 3.74843,-2.58588 5.62299,-3.82977 2.62847,-1.74248 5.36719,-3.52043 7.94926,-5.20943 3.83573,-2.50735 7.54987,-4.96153 11.21951,-7.4809 5.28096,-3.62435 10.34397,-7.29453 15.19896,-11.1348 4.47985,-3.54366 8.70977,-7.17321 12.68172,-10.95397 3.84504,-3.66059 7.39684,-7.41464 10.63942,-11.30114 3.21331,-3.8517 6.07926,-7.78341 8.58341,-11.80384 2.50075,-4.01417 4.60414,-8.06186 6.31876,-12.11225 1.67471,-3.95372 2.95386,-7.85372 3.88985,-11.63765 0.34035,-1.37509 0.62159,-2.67798 0.85505,-3.89577 a 4.2230175,4.2230175 90 0 0 -8.29498,-1.59022 c -0.20704,1.07995 -0.45658,2.23605 -0.75885,3.45735 -0.83026,3.35649 -1.96906,6.83287 -3.46855,10.37292 -1.53572,3.62778 -3.43268,7.28413 -5.7102,10.93997 -2.28189,3.66358 -4.91504,7.281 -7.89987,10.85882 -3.01304,3.61137 -6.33953,7.13094 -9.9775,10.59439 -3.75851,3.5776 -7.78938,7.03892 -12.09807,10.4472 -4.66952,3.69356 -9.57199,7.24947 -14.73899,10.79561 -3.59172,2.46588 -7.24366,4.87938 -11.06205,7.37539 -2.54885,1.66728 -5.33649,3.47717 -7.9952,5.2397 -1.89786,1.25935 -3.86809,2.58428 -5.82235,3.96613 -0.39926,0.27931 -0.66811,0.4774 -0.80947,0.56692 -0.005,0.003 -0.0103,0.007 -0.0154,0.01 -0.44184,0.28247 -0.92354,0.50913 -1.42712,0.6666 -0.52196,0.1638 -1.09379,0.26343 -1.70276,0.28876 -0.68286,0.0288 -1.41588,-0.0328 -2.19071,-0.18722 -0.86638,-0.17277 -1.75932,-0.45463 -2.67662,-0.83758 -1.03001,-0.4305 -2.0574,-0.9742 -3.08422,-1.6174 -1.19391,-0.74859 -2.357,-1.61321 -3.49287,-2.57737 -0.41926,-0.361 -0.90827,-0.77987 -1.42728,-1.18938 -1.05981,-0.84021 -2.24894,-1.67741 -3.56638,-2.40506 -1.11276,-0.61484 -2.33304,-1.15765 -3.6476,-1.5552 -1.19036,-0.36116 -2.43785,-0.59483 -3.71085,-0.68068 -1.38449,-0.0948 -2.75908,-0.0117 -4.08449,0.20775 -1.53791,0.25407 -3.00044,0.68697 -4.36655,1.21293 -1.51165,0.58259 -2.93437,1.28811 -4.27176,2.04746 -1.59056,0.90431 -3.09297,1.90278 -4.52268,2.94129 -0.76615,0.55472 -1.53345,1.14267 -2.28857,1.76375 -1.1834,0.97051 -2.31489,1.97741 -3.40082,2.96703 -1.58888,1.44966 -3.12016,2.90103 -4.64193,4.30358 -1.46761,1.35256 -2.91244,2.6521 -4.39252,3.87172 -1.08718,0.89489 -2.16989,1.7277 -3.27495,2.4761 -0.88697,0.59984 -1.76037,1.1262 -2.63722,1.56103 -0.73909,0.36592 -1.44624,0.64865 -2.12838,0.83857 -0.599,0.1667 -1.15312,0.25211 -1.65561,0.26109 -0.4147,0.008 -0.80843,-0.0372 -1.17001,-0.12868 -0.95521,-0.25903 -1.93091,-0.50782 -2.92368,-0.73468 -2.66813,-0.61085 -5.42918,-1.07642 -8.25203,-1.29254 -2.35987,-0.18005 -4.78471,-0.18561 -7.22536,0.0699 -2.09921,0.21932 -4.21124,0.63485 -6.27919,1.28885 -1.85295,0.58465 -3.65141,1.35667 -5.35664,2.30339 -1.67601,0.92887 -3.24069,2.01451 -4.68643,3.20326 -1.59722,1.31195 -3.04284,2.74254 -4.36549,4.20356 -1.4962,1.65164 -2.8612,3.37158 -4.13625,5.01434 -1.1044,1.42134 -2.09343,2.72383 -3.14846,4.00469 -0.81044,0.98248 -1.59748,1.87437 -2.41545,2.6727 -0.725,0.707 -1.44063,1.30439 -2.1671,1.78276 -0.69676,0.45961 -1.40469,0.80447 -2.10489,1.02682 -0.74678,0.23891 -1.55172,0.36064 -2.38419,0.36173 -0.005,10e-6 -0.0109,3e-5 -0.0163,6e-5 -0.25487,0.001 -0.51882,-0.0125 -0.95594,-0.0339 -2.97215,-0.14971 -5.88831,-0.46931 -8.72027,-1.02789 -2.35996,-0.46504 -4.65431,-1.09951 -6.84938,-1.92472 -1.9405,-0.72758 -3.82332,-1.61377 -5.63633,-2.63431 -1.72308,-0.96789 -3.40231,-2.06452 -5.07358,-3.2467 -2.26297,-1.60013 -4.3981,-3.26312 -6.75381,-5.01748 -1.87749,-1.39994 -3.8117,-2.79166 -5.82511,-4.10669 -2.23465,-1.4619 -4.548,-2.81594 -6.93841,-4.0295 -2.76337,-1.40515 -5.60432,-2.61161 -8.48249,-3.63465 -3.85498,-1.37131 -7.77639,-2.41895 -11.68177,-3.23098 -4.39112,-0.91227 -8.79558,-1.53708 -13.15174,-1.97177 -5.40881,-0.53785 -10.79908,-0.789 -16.11807,-0.86224 -6.59435,-0.0884 -13.14419,0.0967 -19.60459,0.4467 -7.9531,0.43322 -15.84012,1.12183 -23.6198,1.96207 -0.0299,0.003 -0.0275,-7.2e-4 0.004,0.004 0.0376,0.006 0.0458,0.0131 0.0437,0.012 -0.026,-0.0137 -0.10713,-0.0625 -0.23554,-0.18932 -0.15779,-0.15591 -0.33804,-0.37784 -0.5391,-0.68852 -0.24413,-0.37804 -0.47523,-0.81998 -0.70064,-1.32988 -0.30412,-0.68948 -0.56776,-1.43783 -0.81104,-2.24327 -0.52806,-1.76163 -1.01083,-3.56106 -1.52784,-5.40563 -0.55768,-1.98807 -1.15364,-4.02381 -1.8902,-6.04998 -0.61962,-1.70464 -1.33915,-3.39783 -2.21185,-5.03824 -0.80587,-1.51666 -1.73197,-2.96394 -2.78262,-4.31146 -1.07142,-1.37622 -2.25446,-2.62414 -3.50862,-3.73591 -1.55038,-1.37599 -3.20356,-2.54011 -4.86475,-3.52267 -1.95065,-1.15406 -3.94786,-2.08258 -5.88784,-2.84577 -2.25101,-0.8848 -4.49772,-1.57685 -6.65258,-2.13796 -0.70622,-0.18386 -1.40365,-0.41624 -2.08679,-0.67993 -1.5738,-0.60887 -3.09221,-1.38709 -4.54136,-2.23839 -1.79882,-1.05884 -3.49223,-2.23538 -5.06308,-3.42995 -2.05173,-1.56193 -3.94415,-3.19552 -5.65773,-4.78552 -2.48822,-2.31044 -4.71577,-4.63926 -6.66214,-6.81724 -1.18587,-1.32774 -2.29434,-2.63013 -3.32472,-3.88762 -1.44268,-1.76066 -2.80232,-3.51881 -4.0818,-5.25529 -2.90987,-3.95115 -5.45668,-7.86154 -7.68098,-11.63605 -2.6931,-4.57215 -4.94001,-8.9911 -6.81354,-13.19764 -2.05558,-4.61759 -3.64702,-8.94819 -4.87877,-12.9696 -1.44407,-4.71724 -2.37864,-8.9638 -2.97445,-12.72963 -0.74086,-4.68554 -0.95084,-8.60263 -0.95092,-11.67753 a 4.2230175,4.2230175 90 0 0 -8.44604,2.2e-4 z"
       id="path-1"
       fill="#e9a75bff"
       style="display:inline;fill:#000000;fill-opacity:1;fill-rule:nonzero;stroke:none;stroke-width:10;stroke-dasharray:none"
       transform="matrix(1.6866895,0,0,1.6866895,-475.07864,-339.88015)" />
    <rect
       style="display:inline;fill:#ffffff;fill-opacity:1;stroke:#000000;stroke-width:28.3097;stroke-linejoin:round;stroke-dasharray:none;stroke-dashoffset:0;paint-order:markers fill stroke"
       id="rect2"
       width="602.56952"
       height="753.37671"
       x="87.221565"
       y="158.82335"
       rx="87.601639"
       ry="88.148026" />
    <path
       style="fill:#ffffff;fill-opacity:1;stroke:#000000;stroke-width:28.817;stroke-linejoin:round;stroke-dasharray:none;stroke-dashoffset:0;stroke-opacity:1;paint-order:markers fill stroke"
       d="M 168.45046,7.5778977 C 162.30589,42.445581 101.52888,64.567474 113.61404,99.927318"
       id="path3" />
    <use
       x="0"
       y="0"
       xlink:href="#path3"
       id="use4"
       transform="translate(506.00685)" />
    <use
       x="0"
       y="0"
       xlink:href="#use4"
       id="use5"
       transform="translate(-126.50171)" />
    <use
       x="0"
       y="0"
       xlink:href="#use5"
       id="use6"
       transform="translate(-126.50171)" />
    <use
       x="0"
       y="0"
       xlink:href="#use6"
       id="use7"
       transform="translate(-126.50171)" />
  </g>
  <g
     id="layer2">
    <path
       d="m 381.56265,342.85332 q 3.44933,0 4.80132,1.23067 1.352,1.21333 1.352,3.43199 0,1.52533 -0.53733,2.6 -0.53733,1.05733 -1.88933,1.66399 -1.352,0.58934 -3.72666,0.58934 h -3.60533 v 3.05066 h -4.26399 q 0.13867,-3.36266 0.13867,-6.29199 0,-2.92933 -0.13867,-6.29199 h 4.26399 v 0.0173 z m -1.21333,6.17066 q 1.43866,0 2.14933,-0.104 0.728,-0.12133 1.00533,-0.416 0.29467,-0.29467 0.29467,-0.86667 0,-0.57199 -0.27734,-0.84933 -0.26,-0.29466 -0.988,-0.39866 -0.71066,-0.104 -2.18399,-0.104 h -2.392 v 2.73866 z m 12.77464,-0.50267 q 0.728,-2.61733 3.62266,-2.61733 0.50267,0 0.97066,0.0693 l -0.55466,3.88266 q -1.248,-0.468 -2.04533,-0.468 -0.988,0 -1.456,0.58933 -0.468,0.58933 -0.468,1.57733 v -0.0173 l -0.0173,1.14399 q 0,1.23067 0.0693,2.73867 h -4.14266 q 0.13867,-2.496 0.13867,-4.71466 0,-2.21866 -0.13867,-4.74933 1.144,0.052 1.75067,0.052 0.64133,0 1.75066,-0.052 z m 11.04129,7.07199 q -2.96399,0 -4.36799,-1.352 -1.38666,-1.36933 -1.38666,-3.58799 0,-2.16666 1.38666,-3.51866 1.404,-1.352 4.36799,-1.352 1.99333,0 3.328,0.65867 1.352,0.64133 1.99333,1.75066 0.64133,1.092 0.64133,2.46133 0,2.23599 -1.49066,3.58799 -1.47333,1.352 -4.472,1.352 z m 0.0693,-2.94666 q 1.12666,0 1.68133,-0.53733 0.55466,-0.53734 0.55466,-1.43867 0,-0.84933 -0.55466,-1.38666 -0.55467,-0.55467 -1.68133,-0.55467 -1.12667,0 -1.64667,0.53733 -0.51999,0.53734 -0.51999,1.404 0,0.90133 0.51999,1.43867 0.52,0.53733 1.64667,0.53733 z m 9.16932,-7.71332 q -1.092,0 -1.62933,-0.53733 -0.52,-0.53733 -0.52,-1.404 0,-0.84933 0.52,-1.404 0.53733,-0.55466 1.62933,-0.55466 1.03999,0 1.59466,0.572 0.55466,0.55466 0.55466,1.38666 0,0.86667 -0.53733,1.404 -0.53733,0.53733 -1.61199,0.53733 z m 2.13199,1.02266 q -0.104,1.73333 -0.104,4.02133 l 0.0173,2.25333 q 0.0173,0.69333 0.0173,2.06266 0,2.68666 -1.196,3.83066 -1.196,1.144 -3.50133,1.144 -0.53733,0 -1.10933,-0.052 v -0.53733 q 0,-1.04 -0.22533,-2.028 l 0.32933,0.0173 q 0.86667,0 1.28267,-0.416 0.43333,-0.39866 0.45066,-1.35199 0.0347,-1.56 0.0347,-2.47866 0,-3.34533 -0.156,-6.46533 z m 10.57331,5.13066 h -5.65065 q 0.13866,0.76267 0.676,1.248 0.55466,0.468 1.55999,0.468 0.728,0 1.36933,-0.27733 0.64134,-0.29467 1.02267,-0.81467 1.16133,0.572 3.08533,1.23066 -0.53734,1.21334 -1.95867,1.94133 -1.40399,0.71067 -3.67466,0.71067 -2.94666,0 -4.36799,-1.352 -1.40399,-1.36933 -1.40399,-3.58799 0,-2.16666 1.40399,-3.51866 1.404,-1.352 4.36799,-1.352 1.768,0 3.068,0.58933 1.3,0.58934 1.99333,1.64667 0.69333,1.04 0.69333,2.39199 0,0.45067 -0.0347,0.676 z m -3.32799,-2.68666 q -0.86666,0 -1.42133,0.32933 -0.55467,0.32934 -0.78,0.90133 h 4.09066 q -0.208,-0.55466 -0.676,-0.88399 -0.468,-0.34667 -1.21333,-0.34667 z m 10.24399,2.288 q 0.0347,0.88399 0.55466,1.42133 0.53733,0.53733 1.57733,0.53733 0.572,0 1.02267,-0.208 0.45066,-0.22533 0.83199,-0.65867 1.47333,0.572 3.44933,0.988 -0.572,1.33467 -1.94133,2.08 -1.352,0.74533 -3.51866,0.74533 -2.89466,0 -4.28132,-1.352 -1.38667,-1.352 -1.38667,-3.55332 0,-2.20133 1.38667,-3.55333 1.38666,-1.352 4.28132,-1.352 2.16666,0 3.51866,0.74533 1.36933,0.74534 1.94133,2.08 -1.54266,0.32933 -3.44933,0.988 -0.38133,-0.43334 -0.83199,-0.64133 -0.45067,-0.22534 -1.02267,-0.22534 -1.04,0 -1.57733,0.53733 -0.52,0.53734 -0.55466,1.42134 z m 16.58798,-1.62933 q -1.59467,-0.104 -2.912,-0.156 l -0.0173,1.83733 q 0,0.93599 0.39867,1.47333 0.416,0.51999 1.45599,0.51999 0.39867,0 0.76267,-0.0693 -0.0693,0.64133 -0.0693,1.3 0,0.312 0.0347,1.42133 -0.76266,0.13867 -1.28266,0.17333 -0.52,0.0347 -1.352,0.0347 -2.028,0 -2.87733,-0.97067 -0.832,-0.98799 -0.832,-2.73866 l 0.0173,-2.92932 q -0.81467,0.0347 -1.69867,0.104 v -3.068 q 0.90134,0 1.52533,-0.572 0.624,-0.572 0.74534,-1.36933 h 4.71465 q -0.88399,1.21333 -1.95866,1.94133 h 3.34533 z"
       id="text1"
       style="font-size:17.3333px;font-family:'Dela Gothic One';-inkscape-font-specification:'Dela Gothic One';white-space:pre;stroke-width:10"
       transform="matrix(6.7743064,0,0,4.739158,-2400.1589,-1402.8006)"
       aria-label="Project" />
  </g>
  <metadata
     id="metadata1">
    <rdf:RDF>
      <cc:Work
         rdf:about="">
        <dc:title>Project Jam</dc:title>
        <dc:date>19/10/2024 00:11:24</dc:date>
        <dc:creator>
          <cc:Agent>
            <dc:title>omarplayz. and omarreacts.</dc:title>
          </cc:Agent>
        </dc:creator>
        <dc:source>projectjam.eu.org</dc:source>
        <dc:rights>
          <cc:Agent>
            <dc:title>omarplayz. and omarreacts.</dc:title>
          </cc:Agent>
        </dc:rights>
        <dc:publisher>
          <cc:Agent>
            <dc:title>omarplayz. and omarreacts.</dc:title>
          </cc:Agent>
        </dc:publisher>
        <dc:identifier>hi@dev.omarplayz.eu.org</dc:identifier>
        <dc:language>eu_us-utf8</dc:language>
        <dc:description>just the project jam october 2024 icon</dc:description>
        <dc:contributor>
          <cc:Agent>
            <dc:title>omarplayz. and omarreacts.</dc:title>
          </cc:Agent>
        </dc:contributor>
      </cc:Work>
    </rdf:RDF>
  </metadata>
</svg>
